<?xml version="1.0" standalone="no"?>
<!DOCTYPE svg PUBLIC "-//W3C//DTD SVG 20010904//EN"
 "http://www.w3.org/TR/2001/REC-SVG-20010904/DTD/svg10.dtd">
<svg version="1.0" xmlns="http://www.w3.org/2000/svg"
 width="795.000000pt" height="200.000000pt" viewBox="0 0 795.000000 200.000000"
 preserveAspectRatio="xMidYMid meet">

<g transform="translate(0.000000,200.000000) scale(0.100000,-0.100000)"
fill="#000000" stroke="none">
<path d="M0 1000 l0 -1000 3975 0 3975 0 0 1000 0 1000 -3975 0 -3975 0 0
-1000z m4236 393 c14 -95 10 -169 -10 -192 -28 -31 -37 -26 -30 18 14 86 -31
141 -116 141 l-40 0 0 -130 0 -130 40 0 c33 0 42 5 54 28 l14 27 11 -25 c5
-14 19 -38 30 -55 12 -16 21 -42 21 -57 l0 -26 -29 29 c-26 25 -37 29 -85 29
-59 0 -67 -5 -39 -25 15 -11 16 -15 3 -30 -11 -13 -16 -52 -19 -138 l-3 -120
51 5 c30 3 60 13 72 24 42 37 64 125 37 152 -9 9 -7 12 9 12 36 0 43 -23 46
-139 l2 -111 -194 0 -195 0 37 34 37 34 0 101 c0 82 -3 101 -15 101 -17 0 -35
30 -35 59 0 14 6 21 19 21 10 0 22 7 25 16 3 9 6 81 6 161 l0 145 -37 34 -37
34 166 0 c101 0 169 4 173 10 13 21 24 8 31 -37z m1440 0 c14 -95 10 -169 -10
-192 -28 -31 -37 -26 -30 18 14 86 -31 141 -116 141 l-40 0 0 -130 0 -130 40
0 c33 0 42 5 54 28 l14 27 11 -25 c5 -14 19 -38 30 -55 12 -16 21 -42 21 -57
l0 -26 -29 29 c-26 25 -37 29 -85 29 -58 0 -67 -5 -41 -24 14 -10 14 -15 0
-48 -10 -26 -15 -70 -15 -139 l0 -102 51 6 c29 4 61 14 72 24 40 36 61 125 35
151 -9 9 -7 12 9 12 35 0 42 -21 45 -138 l3 -112 -194 0 -195 0 37 34 37 34 0
101 c0 82 -3 101 -15 101 -17 0 -35 30 -35 59 0 14 6 21 19 21 10 0 22 7 25
16 3 9 6 81 6 161 l0 145 -37 34 -37 34 166 0 c101 0 169 4 173 10 13 21 24 8
31 -37z m-438 23 c1 -2 -37 -105 -85 -231 -77 -202 -85 -228 -70 -237 23 -13
21 -22 -8 -38 -25 -13 -67 -88 -80 -143 l-7 -27 66 0 c57 0 70 3 91 24 25 25
50 98 42 125 -3 9 -8 24 -12 33 -5 13 -2 15 15 11 32 -8 40 -43 38 -154 l-3
-99 -187 0 c-104 0 -188 1 -188 3 0 2 23 59 51 128 46 115 49 127 38 160 -16
52 -10 73 25 74 28 0 31 6 93 154 34 85 63 156 63 159 0 3 -28 2 -62 -1 -73
-6 -109 -30 -123 -80 -13 -47 -21 -53 -44 -33 -27 24 -34 62 -20 103 8 25 8
38 0 46 -29 29 -9 32 176 29 104 -2 189 -5 191 -6z m-2908 -3 c0 -5 14 -95 32
-201 25 -153 35 -192 46 -187 26 10 30 -5 15 -45 -15 -37 -15 -47 1 -123 20
-92 38 -132 66 -150 11 -6 20 -15 20 -19 0 -5 -48 -8 -107 -8 l-106 0 21 23
c25 27 27 53 11 162 -12 78 -28 108 -54 99 -23 -9 -28 -43 -10 -71 17 -25 17
-27 -1 -40 -11 -8 -29 -11 -40 -9 -25 7 -34 -14 -34 -81 0 -32 5 -46 20 -55
11 -7 20 -16 20 -20 0 -5 -47 -8 -105 -8 -58 0 -105 3 -105 8 0 4 9 13 20 19
30 19 47 62 63 154 13 72 13 87 1 104 -15 21 -20 70 -6 61 20 -12 34 19 52
119 11 60 20 127 20 150 0 49 -20 81 -44 72 -25 -10 -31 -38 -14 -68 14 -24
14 -30 2 -40 -22 -18 -60 -3 -74 31 -15 37 -7 74 25 106 23 23 31 24 145 24
66 0 120 -3 120 -7z m2325 -13 c53 -33 70 -80 70 -190 0 -104 -14 -146 -64
-187 -14 -12 -21 -22 -14 -23 19 0 51 -80 58 -145 9 -88 25 -134 54 -156 l25
-20 -74 3 -74 3 -12 77 c-23 145 -65 238 -109 238 -13 0 -15 -18 -15 -121 0
-124 6 -149 44 -181 20 -17 17 -17 -93 -18 l-115 0 30 31 c28 29 29 35 32 135
3 88 2 104 -12 104 -18 0 -46 37 -46 62 0 11 8 18 20 18 31 0 40 38 40 176 0
128 -5 150 -43 192 l-20 22 143 0 c126 0 147 -2 175 -20z m1819 -17 c19 -120
-5 -193 -64 -193 -33 0 -77 49 -52 58 24 8 42 34 42 62 0 33 -3 35 -47 45
l-33 7 0 -165 c0 -132 3 -166 14 -170 12 -5 12 -11 0 -44 -9 -27 -13 -93 -14
-223 0 -167 2 -188 20 -217 11 -18 24 -33 30 -33 5 0 10 -4 10 -10 0 -6 -42
-10 -105 -10 -99 0 -124 8 -91 27 31 18 36 53 36 238 l0 187 -25 20 c-31 24
-34 68 -6 68 10 0 22 7 25 16 3 9 6 83 6 166 l0 150 -27 -6 c-30 -8 -53 -31
-53 -53 0 -8 11 -25 25 -39 30 -30 32 -50 6 -64 -32 -16 -56 -12 -82 16 -19
20 -24 36 -24 77 0 29 4 69 8 90 l8 37 193 0 193 0 7 -37z m-4828 -4 c-25 -29
-26 -35 -26 -161 l0 -130 25 16 c33 21 73 20 113 -4 l32 -20 0 119 c0 129 -6
157 -41 190 l-23 21 108 0 108 0 -26 -31 c-26 -30 -26 -33 -26 -189 0 -129 3
-159 15 -163 12 -5 12 -10 0 -34 -12 -22 -15 -73 -15 -236 l0 -208 25 -25 c14
-14 25 -27 25 -29 0 -3 -48 -5 -107 -5 l-107 0 30 31 29 30 0 224 c0 211 -1
225 -21 252 -44 59 -109 27 -69 -34 16 -23 16 -27 1 -41 -13 -14 -21 -14 -46
-5 l-30 11 0 -204 0 -205 25 -25 c14 -14 25 -27 25 -29 0 -3 -48 -5 -107 -5
l-107 0 30 31 29 30 3 190 3 190 -30 28 c-36 34 -42 71 -11 71 31 0 40 38 40
170 0 128 -6 156 -41 189 l-23 21 108 0 108 0 -26 -31z m1118 -91 c95 -311 99
-323 107 -297 4 13 36 113 70 222 l63 197 80 0 80 0 -30 -31 -29 -30 -3 -156
c-3 -133 -1 -156 13 -167 14 -10 15 -15 0 -48 -18 -44 -21 -198 -4 -231 6 -12
21 -32 32 -44 l20 -23 -101 0 c-56 0 -102 3 -102 6 0 3 9 17 20 31 18 24 20
40 19 202 l-1 176 -39 -115 c-38 -111 -40 -124 -24 -162 6 -16 0 -18 -70 -18
-75 0 -76 0 -69 23 13 35 7 65 -30 167 l-35 95 -1 -169 c0 -154 2 -172 21
-202 l21 -34 -103 0 -102 0 20 23 c36 39 43 64 43 156 0 74 -3 91 -15 91 -8 0
-22 11 -31 25 -17 26 -13 57 7 53 27 -6 39 46 39 169 0 131 -6 159 -41 192
l-23 21 80 0 80 0 38 -122z m676 -85 c35 -115 66 -213 69 -220 3 -6 37 87 75
208 l69 219 80 0 81 0 -30 -31 -29 -30 -3 -156 c-3 -133 -1 -156 13 -167 14
-10 15 -15 0 -48 -18 -44 -21 -198 -4 -231 6 -12 21 -32 32 -44 l20 -23 -102
0 -103 0 21 34 c20 32 21 46 19 203 l-3 168 -39 -113 c-32 -95 -36 -118 -27
-138 6 -14 11 -27 11 -29 0 -3 -34 -5 -76 -5 -74 0 -75 0 -68 23 13 35 7 65
-30 167 l-35 95 -1 -169 c0 -154 2 -172 21 -202 l21 -34 -103 0 -103 0 30 31
c28 29 29 35 32 135 3 88 2 104 -12 104 -18 0 -46 38 -46 63 0 11 6 17 17 15
34 -6 44 39 41 184 -3 136 -3 137 -32 167 l-30 31 80 0 80 0 64 -207z m2526
176 c-26 -30 -26 -33 -26 -189 0 -133 2 -159 15 -164 14 -5 14 -9 0 -35 -10
-21 -15 -60 -15 -131 0 -99 9 -137 36 -153 33 -20 8 -27 -93 -27 l-107 0 30
31 c27 28 29 36 32 125 l4 94 -32 30 c-32 30 -38 65 -10 65 31 0 41 46 38 187
-3 136 -3 137 -32 167 l-30 31 108 0 108 0 -26 -31z"/>
<path d="M4201 743 c-10 -26 -10 -27 4 -9 8 11 15 23 15 28 0 15 -7 8 -19 -19z"/>
<path d="M5641 743 c-10 -26 -10 -27 4 -9 8 11 15 23 15 28 0 15 -7 8 -19 -19z"/>
<path d="M4919 1363 c-13 -16 -12 -17 4 -4 16 13 21 21 13 21 -2 0 -10 -8 -17
-17z"/>
<path d="M4975 869 c-4 -6 -5 -12 -2 -15 2 -3 7 2 10 11 7 17 1 20 -8 4z"/>
<path d="M5171 737 c-13 -21 -12 -21 5 -5 10 10 16 20 13 22 -3 3 -11 -5 -18
-17z"/>
<path d="M2079 1363 c-13 -16 -12 -17 4 -4 9 7 17 15 17 17 0 8 -8 3 -21 -13z"/>
<path d="M2201 1204 c0 -11 3 -14 6 -6 3 7 2 16 -1 19 -3 4 -6 -2 -5 -13z"/>
<path d="M2241 1143 c-7 -43 -15 -89 -18 -104 -4 -24 -2 -25 36 -25 31 1 40 4
36 16 -2 8 -9 51 -16 95 -6 44 -15 84 -19 88 -4 4 -13 -27 -19 -70z"/>
<path d="M2191 1144 c0 -11 3 -14 6 -6 3 7 2 16 -1 19 -3 4 -6 -2 -5 -13z"/>
<path d="M2182 1090 c0 -14 2 -19 5 -12 2 6 2 18 0 25 -3 6 -5 1 -5 -13z"/>
<path d="M2211 924 c0 -11 3 -14 6 -6 3 7 2 16 -1 19 -3 4 -6 -2 -5 -13z"/>
<path d="M2371 864 c0 -11 3 -14 6 -6 3 7 2 16 -1 19 -3 4 -6 -2 -5 -13z"/>
<path d="M2141 834 c0 -11 3 -14 6 -6 3 7 2 16 -1 19 -3 4 -6 -2 -5 -13z"/>
<path d="M2381 814 c0 -11 3 -14 6 -6 3 7 2 16 -1 19 -3 4 -6 -2 -5 -13z"/>
<path d="M4500 1225 l0 -134 30 -16 c38 -20 37 -20 32 18 -3 28 0 33 27 44 49
18 67 96 37 168 -17 40 -42 55 -90 55 l-36 0 0 -135z"/>
<path d="M4442 1070 c0 -14 2 -19 5 -12 2 6 2 18 0 25 -3 6 -5 1 -5 -13z"/>
<path d="M4652 880 c0 -14 2 -19 5 -12 2 6 2 18 0 25 -3 6 -5 1 -5 -13z"/>
<path d="M6091 1304 c0 -11 3 -14 6 -6 3 7 2 16 -1 19 -3 4 -6 -2 -5 -13z"/>
<path d="M6273 1170 c0 -41 2 -58 4 -37 2 20 2 54 0 75 -2 20 -4 3 -4 -38z"/>
<path d="M6274 790 c0 -69 1 -97 3 -62 2 34 2 90 0 125 -2 34 -3 6 -3 -63z"/>
<path d="M5882 1070 c0 -14 2 -19 5 -12 2 6 2 18 0 25 -3 6 -5 1 -5 -13z"/>
</g>
</svg>
